<?xml version="1.0" encoding="utf-8"?>
<!-- Generator: Adobe Illustrator 22.0.1, SVG Export Plug-In . SVG Version: 6.00 Build 0)  -->
<svg version="1.1" id="Layer_1" xmlns="http://www.w3.org/2000/svg" xmlns:xlink="http://www.w3.org/1999/xlink" x="0px" y="0px"
	 viewBox="0 0 269.4 105.8" style="enable-background:new 0 0 269.4 105.8;" xml:space="preserve">
<style type="text/css">
	.st0{clip-path:url(#SVGID_2_);}
	.st1{clip-path:url(#SVGID_4_);fill:#432D88;}
	.st2{clip-path:url(#SVGID_4_);}
	.st3{fill:#EF5453;}
	.st4{fill:#432D88;}
	.st5{fill:#FBEC00;}
	.st6{fill:#94D0AB;}
	.st7{clip-path:url(#SVGID_6_);}
	.st8{clip-path:url(#SVGID_8_);fill:#432D88;}
	.st9{clip-path:url(#SVGID_8_);}
	.st10{clip-path:url(#SVGID_10_);}
	.st11{clip-path:url(#SVGID_12_);fill:#432D88;}
	.st12{clip-path:url(#SVGID_12_);}
</style>
<g>
	<g>
		<defs>
			<path id="SVGID_1_" d="M4.6,97.1V8.8h19.9v88.3H4.6z"/>
		</defs>
		<clipPath id="SVGID_2_">
			<use xlink:href="#SVGID_1_"  style="overflow:visible;"/>
		</clipPath>
		<g class="st0">
			<defs>
				<rect id="SVGID_3_" x="-78.4" y="-16.6" width="393.3" height="236.5"/>
			</defs>
			<clipPath id="SVGID_4_">
				<use xlink:href="#SVGID_3_"  style="overflow:visible;"/>
			</clipPath>
			<path class="st1" d="M188.3,198.1"/>
			<g class="st2">
				<path class="st3" d="M145.8-20.7c2.1,0,103.4-2.8,107.6-1.8c4.2,1,45.8,121.1,18,167.6s-29.2,71.5-26.4,95.1
					c2.8,23.6-55.2,28.2-55.2,28.2s-35.2,2.9-32-13.7S145.8-20.7,145.8-20.7z"/>
				<path class="st4" d="M91.5-15.5c45.2-12.8,54.5,2.6,68.9,0s12.9,22.2,23,38.5c10,16.3,58.8,40.2,40.2,86.4s-14.3,37.7-23,63.3
					c-8.6,25.7-11.5,59-12.2,75.3c-0.7,16.3,4.3,24-0.7,25.7c-5,1.7-16.6-4.3-28-11.1s-10-1.7-24.3-18.8s-16.5-13.7-19.4-29.1
					s-8.6,26.5-5.7-30.8c2.9-57.3,2.9-53.9,3.6-79.6c0.7-25.7-25.8-118.9-25.8-118.9L91.5-15.5z"/>
				<path class="st5" d="M-18.8-8.5c-1.1,3.8-1.2,7.8-0.3,11.6c4.6,18.5,17,79-1.5,124.8c-22.1,54.7-12.6,58.8,0,82.4
					s40.3,21.2,73.5,35.1c33.2,13.9,45.8,11.4,50.6-4.1c4.7-15.5-69.4-86.5-68.7-264.5C35.4-182.1-9.3-40.4-18.8-8.5z"/>
				<path class="st6" d="M19-9.4c2-6,7-10.2,12.8-10.8c13.4-1.5,58.2-5.8,63.7,4.5c6.5,12.2,3.2,39.2,8.4,53.1
					c5.2,13.9,23.4,37.8,24,62.5c0.6,24.6,69.4,157.7,12.7,168.2c-1.1,0.2-2.2,0.3-3.3,0.2c-13.8-0.9-111.9-9.1-104.2-65.2
					c8.4-60.4,13.1-75.9,0-112.6S15.7,4.7,18.3-6.8C18.5-7.7,18.7-8.6,19-9.4z"/>
			</g>
		</g>
	</g>
	<g>
		<defs>
			<path id="SVGID_5_" d="M38.4,53.2C38.4,25.6,59.3,7,84,7c26.5,0,38.2,17.1,41.1,29.8l-18.5,5.9c-1.4-6.1-7-16.4-22.5-16.4
				c-11.8,0-25.1,8.5-25.1,27c0,16.6,12.2,26.1,25.4,26.1c15.3,0,21.4-10.2,23.2-16.6l18.8,5.4c-2.9,12.2-14.6,30.9-42,30.9
				C58.9,99,38.4,80.7,38.4,53.2z"/>
		</defs>
		<clipPath id="SVGID_6_">
			<use xlink:href="#SVGID_5_"  style="overflow:visible;"/>
		</clipPath>
		<g class="st7">
			<defs>
				<rect id="SVGID_7_" x="-78.9" y="-16.6" width="393.3" height="236.5"/>
			</defs>
			<clipPath id="SVGID_8_">
				<use xlink:href="#SVGID_7_"  style="overflow:visible;"/>
			</clipPath>
			<path class="st8" d="M187.9,198.1"/>
			<g class="st9">
				<path class="st3" d="M145.3-20.7c2.1,0,103.4-2.8,107.6-1.8s45.8,121.1,18,167.6s-29.2,71.5-26.4,95.1s-55.2,28.2-55.2,28.2
					s-35.2,2.9-32-13.7C160.6,237.9,145.3-20.7,145.3-20.7z"/>
				<path class="st4" d="M91-15.5c45.2-12.8,54.5,2.6,68.9,0s12.9,22.2,23,38.5c10,16.3,58.8,40.2,40.2,86.4s-14.3,37.7-23,63.3
					c-8.6,25.7-11.5,59-12.2,75.3s4.3,24-0.7,25.7c-5,1.7-16.6-4.3-28-11.1c-11.4-6.8-10-1.7-24.3-18.8s-16.5-13.7-19.4-29.1
					c-2.9-15.4-8.6,26.5-5.7-30.8s2.9-53.9,3.6-79.6S87.4-14.6,87.4-14.6L91-15.5z"/>
				<path class="st5" d="M-19.3-8.5c-1.1,3.8-1.2,7.8-0.3,11.6c4.6,18.5,17,79-1.5,124.8c-22.1,54.7-12.6,58.8,0,82.4
					s40.3,21.2,73.5,35.1c33.2,13.9,45.8,11.4,50.6-4.1c4.7-15.5-69.4-86.5-68.7-264.5C35-182.1-9.8-40.4-19.3-8.5z"/>
				<path class="st6" d="M18.5-9.4c2-6,7-10.2,12.8-10.8c13.4-1.5,58.2-5.8,63.7,4.5c6.5,12.2,3.2,39.2,8.4,53.1
					c5.2,13.9,23.4,37.8,24,62.5c0.6,24.6,69.4,157.7,12.7,168.2c-1.1,0.2-2.2,0.3-3.3,0.2C123.1,267.3,25,259.2,32.8,203
					c8.4-60.4,13.1-75.9,0-112.6S15.2,4.7,17.8-6.8C18-7.7,18.3-8.6,18.5-9.4z"/>
			</g>
		</g>
	</g>
	<g>
		<defs>
			<path id="SVGID_9_" d="M235.5,8.8h20.2l-24,88.3h-20.3l-18.8-58.5l-18.9,58.5H153l-24-88.3h20.9l14.6,56.5l18.3-56.5h20.2
				l18.3,56.6L235.5,8.8z"/>
		</defs>
		<clipPath id="SVGID_10_">
			<use xlink:href="#SVGID_9_"  style="overflow:visible;"/>
		</clipPath>
		<g class="st10">
			<defs>
				<rect id="SVGID_11_" x="-78.4" y="-14.8" width="393.3" height="236.5"/>
			</defs>
			<clipPath id="SVGID_12_">
				<use xlink:href="#SVGID_11_"  style="overflow:visible;"/>
			</clipPath>
			<path class="st11" d="M188.3,199.9"/>
			<g class="st12">
				<path class="st3" d="M145.8-18.9c2.1,0,103.4-2.8,107.6-1.8c4.2,1,45.8,121.1,18,167.6s-29.2,71.5-26.4,95.1
					c2.8,23.6-55.2,28.2-55.2,28.2s-35.2,2.9-32-13.7S145.8-18.9,145.8-18.9z"/>
				<path class="st4" d="M91.5-13.7c45.2-12.8,54.5,2.6,68.9,0s12.9,22.2,23,38.5c10,16.3,58.8,40.2,40.2,86.4s-14.3,37.7-23,63.3
					c-8.6,25.7-11.5,59-12.2,75.3c-0.7,16.3,4.3,24-0.7,25.7s-16.6-4.3-28-11.1s-10-1.7-24.3-18.8s-16.5-13.7-19.4-29.1
					s-8.6,26.5-5.7-30.8c2.9-57.3,2.9-53.9,3.6-79.6c0.7-25.7-25.8-118.9-25.8-118.9L91.5-13.7z"/>
				<path class="st5" d="M-18.8-6.7c-1.1,3.8-1.2,7.8-0.3,11.6c4.6,18.5,17,79-1.5,124.8c-22.1,54.7-12.6,58.8,0,82.4
					s40.3,21.2,73.5,35.1s45.8,11.4,50.6-4.1c4.7-15.5-69.4-86.5-68.7-264.5C35.4-180.3-9.3-38.6-18.8-6.7z"/>
				<path class="st6" d="M19-7.6c2-6,7-10.2,12.8-10.8C45.2-20,90-24.3,95.5-13.9c6.5,12.2,3.2,39.2,8.4,53.1
					c5.2,13.9,23.4,37.8,24,62.5c0.6,24.6,69.4,157.7,12.7,168.2c-1.1,0.2-2.2,0.3-3.3,0.2c-13.8-0.9-111.9-9.1-104.2-65.2
					c8.4-60.4,13.1-75.9,0-112.6S15.7,6.5,18.3-5C18.5-5.9,18.7-6.8,19-7.6z"/>
			</g>
		</g>
	</g>
</g>
</svg>
