<?xml version="1.0" encoding="utf-8"?>
<!-- Generator: Adobe Illustrator 22.0.1, SVG Export Plug-In . SVG Version: 6.00 Build 0)  -->
<svg version="1.1" id="Layer_1" xmlns="http://www.w3.org/2000/svg" xmlns:xlink="http://www.w3.org/1999/xlink" x="0px" y="0px"
	 viewBox="0 0 427.9 186.8" style="enable-background:new 0 0 427.9 186.8;" xml:space="preserve">
<style type="text/css">
	.st0{fill:#432D88;}
	.st1{fill:#EF5453;}
	.st2{fill:#FBEC00;}
	.st3{fill:#94D0AB;}
	.st4{fill:none;}
</style>
<path class="st0" d="M290.8,237.8"/>
<g>
	<path class="st1" d="M189.6,392.6c-2.3,0-115.5,3.2-120.2,2c-4.7-1.2-51.2-135.3-20.2-187.2s32.6-79.8,29.5-106.2
		s61.7-31.5,61.7-31.5s39.4-3.3,35.7,15.3C172.5,103.8,189.6,392.6,189.6,392.6z"/>
	<path class="st0" d="M250.2,386.8c-50.5,14.3-60.9-2.9-76.9,0c-16,2.9-14.4-24.8-25.6-43c-11.2-18.2-65.7-44.9-44.9-96.5
		s16-42.1,25.6-70.7c9.6-28.7,12.8-65.9,13.6-84.1c0.8-18.2-4.8-26.8,0.8-28.7c5.6-1.9,18.5,4.8,31.3,12.4
		c12.8,7.6,11.2,1.9,27.2,21s18.4,15.3,21.6,32.5c3.2,17.2,9.6-29.6,6.4,34.4c-3.2,64-3.2,60.2-4,88.9s28.8,132.8,28.8,132.8
		L250.2,386.8z"/>
	<path class="st2" d="M373.4,373.6c1.3-4.2,1.4-8.7,0.3-13c-5.1-20.7-19-88.2,1.7-139.4c24.7-61.1,14.1-65.6,0-92.1
		c-14.1-26.4-45-23.7-82.1-39.2s-51.2-12.8-56.5,4.6c-5.3,17.3,77.5,96.6,76.7,295.4C312.8,567.5,362.8,409.2,373.4,373.6z"/>
	<path class="st3" d="M331.1,380c-2.2,6.7-7.8,11.4-14.3,12.1c-15,1.7-65,6.5-71.2-5.1c-7.3-13.7-3.6-43.8-9.4-59.3
		s-26.1-42.2-26.8-69.9c-0.7-27.4-77.5-176.1-14.2-187.8c1.2-0.2,2.5-0.3,3.7-0.2c15.5,1,125,10.1,116.3,72.8
		c-9.4,67.5-14.6,84.8,0,125.8S334.9,364.3,332,377C331.7,378.1,331.5,379.1,331.1,380z"/>
</g>
<rect x="-1.1" y="-136" class="st4" width="439.2" height="264.2"/>
</svg>
