<?xml version="1.0" encoding="utf-8"?>
<!-- Generator: Adobe Illustrator 22.0.1, SVG Export Plug-In . SVG Version: 6.00 Build 0)  -->
<svg version="1.1" id="Layer_1" xmlns="http://www.w3.org/2000/svg" xmlns:xlink="http://www.w3.org/1999/xlink" x="0px" y="0px"
	 viewBox="0 0 469.7 176.4" style="enable-background:new 0 0 469.7 176.4;" xml:space="preserve">
<style type="text/css">
	.st0{fill:#FCFDFF;}
	.st1{fill:#231F20;}
	.st2{fill:#FFFFFF;}
</style>
<g>
	<rect x="10.3" y="9.4" class="st0" width="448.6" height="157.2"/>
	<path d="M464.5,172.1H4.8V3.9h459.7V172.1z M15.9,161h437.5V15H15.9V161z"/>
	<g>
		<g>
			<path class="st1" d="M41.1,123.5V62.4h13.8v61.1H41.1z"/>
		</g>
		<g>
			<path class="st1" d="M61.1,93.1c0-19,14.5-32,31.5-32c18.4,0,26.5,11.8,28.4,20.6l-12.8,4.1c-0.9-4.2-4.8-11.4-15.6-11.4
				c-8.2,0-17.4,5.9-17.4,18.7c0,11.5,8.4,18.1,17.6,18.1c10.6,0,14.8-7.1,16-11.5l13,3.7c-2,8.4-10.1,21.4-29,21.4
				C75.3,124.8,61.1,112.1,61.1,93.1z"/>
		</g>
		<g>
			<path class="st1" d="M194.1,62.4h14l-16.6,61.1h-14.1l-13-40.5l-13.1,40.5H137l-16.6-61.1h14.5l10.1,39.1l12.7-39.1h14l12.7,39.2
				L194.1,62.4z"/>
		</g>
	</g>
	<rect x="234.6" y="13.8" width="224.3" height="152.8"/>
	<g>
		<g>
			<path class="st2" d="M260.8,41.5V20.8h3.6v20.7H260.8z"/>
		</g>
		<g>
			<path class="st2" d="M272.4,41.5H269V27.3h3.3v1.9c0.9-1.6,2.6-2.3,4.2-2.3c3.5,0,5.1,2.5,5.1,5.6v9h-3.4v-8.4
				c0-1.7-0.8-3.1-2.9-3.1c-1.9,0-2.9,1.5-2.9,3.4V41.5z"/>
		</g>
		<g>
			<path class="st2" d="M289.1,41.5h-3.4V27.3h3.3v1.9c0.9-1.6,2.6-2.3,4.2-2.3c3.5,0,5.1,2.5,5.1,5.6v9H295v-8.4
				c0-1.7-0.8-3.1-2.9-3.1c-1.9,0-2.9,1.5-2.9,3.4V41.5z"/>
		</g>
		<g>
			<path class="st2" d="M316.1,34.4c0,4.4-3.1,7.5-7.4,7.5c-4.2,0-7.3-3.2-7.3-7.5c0-4.3,3.1-7.5,7.3-7.5
				C313,26.9,316.1,30.1,316.1,34.4z M312.7,34.4c0-2.9-1.9-4.5-4-4.5c-2.1,0-4,1.5-4,4.5s1.9,4.5,4,4.5
				C310.8,38.9,312.7,37.4,312.7,34.4z"/>
		</g>
		<g>
			<path class="st2" d="M326.2,41.5h-3.4L317,27.3h3.7l3.8,10.1l3.7-10.1h3.6L326.2,41.5z"/>
		</g>
		<g>
			<path class="st2" d="M337.6,33.4l3.6-0.6c0.8-0.1,1-0.5,1-1c0-1.2-0.8-2.2-2.7-2.2c-1.8,0-2.8,1.1-2.9,2.6l-3.1-0.7
				c0.3-2.4,2.5-4.6,6-4.6c4.4,0,6,2.5,6,5.3v7.1c0,1.3,0.1,2.1,0.2,2.3h-3.1c0-0.1-0.1-0.7-0.1-1.8c-0.7,1.1-2.1,2.2-4.4,2.2
				c-3,0-4.8-2-4.8-4.3C333.3,35.1,335.1,33.7,337.6,33.4z M342.2,35.6V35l-3.7,0.6c-1,0.2-1.9,0.8-1.9,1.9c0,1,0.7,1.8,2.1,1.8
				C340.6,39.3,342.2,38.4,342.2,35.6z"/>
		</g>
		<g>
			<path class="st2" d="M353.9,27.3h2.9v3h-2.9v6.6c0,1.3,0.6,1.8,1.8,1.8c0.5,0,1-0.1,1.2-0.1v2.8c-0.2,0.1-0.8,0.3-2.1,0.3
				c-2.6,0-4.3-1.6-4.3-4.2v-7.1h-2.6v-3h0.7c1.5,0,2.2-1,2.2-2.2V23h3.1V27.3z"/>
		</g>
		<g>
			<path class="st2" d="M361.9,20.1c1.2,0,2.2,1,2.2,2.2c0,1.2-1,2.2-2.2,2.2c-1.2,0-2.2-1-2.2-2.2
				C359.8,21.1,360.7,20.1,361.9,20.1z M360.3,41.5V27.3h3.4v14.2H360.3z"/>
		</g>
		<g>
			<path class="st2" d="M381.6,34.4c0,4.4-3.1,7.5-7.4,7.5c-4.2,0-7.3-3.2-7.3-7.5c0-4.3,3.1-7.5,7.3-7.5
				C378.5,26.9,381.6,30.1,381.6,34.4z M378.2,34.4c0-2.9-1.9-4.5-4-4.5c-2.1,0-4,1.5-4,4.5s1.9,4.5,4,4.5
				C376.3,38.9,378.2,37.4,378.2,34.4z"/>
		</g>
		<g>
			<path class="st2" d="M388.3,41.5h-3.4V27.3h3.3v1.9c0.9-1.6,2.6-2.3,4.2-2.3c3.5,0,5.1,2.5,5.1,5.6v9h-3.4v-8.4
				c0-1.7-0.8-3.1-2.9-3.1c-1.9,0-2.9,1.5-2.9,3.4V41.5z"/>
		</g>
		<g>
			<path class="st2" d="M259.6,66.2c0-6.7,5-10.8,10.4-10.8c5.2,0,8.4,3.1,9.3,6.7l-3.3,1.1c-0.6-2.5-2.5-4.5-6-4.5
				c-3.4,0-6.8,2.5-6.8,7.5c0,4.8,3.3,7.4,6.9,7.4c3.5,0,5.5-2.2,6.2-4.5l3.2,1c-0.9,3.5-4.1,6.8-9.4,6.8
				C264.4,76.9,259.6,72.9,259.6,66.2z"/>
		</g>
		<g>
			<path class="st2" d="M285.5,68.3l3.6-0.6c0.8-0.1,1-0.5,1-1c0-1.2-0.8-2.2-2.7-2.2c-1.8,0-2.8,1.1-2.9,2.6l-3.1-0.7
				c0.3-2.4,2.5-4.6,6-4.6c4.4,0,6,2.5,6,5.3v7.1c0,1.3,0.1,2.1,0.2,2.3h-3.1c0-0.1-0.1-0.7-0.1-1.8c-0.7,1.1-2.1,2.2-4.4,2.2
				c-3,0-4.8-2-4.8-4.3C281.2,70.1,283.1,68.7,285.5,68.3z M290.2,70.6v-0.6l-3.7,0.6c-1,0.2-1.9,0.8-1.9,1.9c0,1,0.7,1.8,2.1,1.8
				C288.6,74.3,290.2,73.4,290.2,70.6z"/>
		</g>
		<g>
			<path class="st2" d="M301.9,62.3h2.9v3h-2.9v6.6c0,1.3,0.6,1.8,1.8,1.8c0.5,0,1-0.1,1.2-0.1v2.8c-0.2,0.1-0.8,0.3-2.1,0.3
				c-2.6,0-4.3-1.6-4.3-4.2v-7.1h-2.6v-3h0.7c1.5,0,2.2-1,2.2-2.2v-2.1h3.1V62.3z"/>
		</g>
		<g>
			<path class="st2" d="M311.7,68.3l3.6-0.6c0.8-0.1,1-0.5,1-1c0-1.2-0.8-2.2-2.7-2.2c-1.8,0-2.8,1.1-2.9,2.6l-3.1-0.7
				c0.3-2.4,2.5-4.6,6-4.6c4.4,0,6,2.5,6,5.3v7.1c0,1.3,0.1,2.1,0.2,2.3h-3.1c0-0.1-0.1-0.7-0.1-1.8c-0.7,1.1-2.1,2.2-4.4,2.2
				c-3,0-4.8-2-4.8-4.3C307.4,70.1,309.3,68.7,311.7,68.3z M316.4,70.6v-0.6l-3.7,0.6c-1,0.2-1.9,0.8-1.9,1.9c0,1,0.7,1.8,2.1,1.8
				C314.8,74.3,316.4,73.4,316.4,70.6z"/>
		</g>
		<g>
			<path class="st2" d="M323.8,76.5V55.4h3.4v21.1H323.8z"/>
		</g>
		<g>
			<path class="st2" d="M332.2,82.2l3.4-7.4l-6.1-12.5h3.8l4.1,9l3.8-9h3.6l-9,19.9H332.2z"/>
		</g>
		<g>
			<path class="st2" d="M348.8,71.8c0.1,1.3,1.1,2.4,2.9,2.4c1.4,0,2.1-0.8,2.1-1.6c0-0.8-0.5-1.3-1.7-1.6l-2.1-0.5
				c-2.5-0.6-3.8-2.2-3.8-4.1c0-2.5,2.3-4.6,5.2-4.6c4,0,5.2,2.6,5.5,4l-2.9,0.8c-0.1-0.8-0.7-2.1-2.6-2.1c-1.2,0-2,0.8-2,1.6
				c0,0.8,0.6,1.3,1.4,1.5l2.2,0.4c2.7,0.6,4.1,2.2,4.1,4.3c0,2.2-1.7,4.5-5.4,4.5c-4.1,0-5.7-2.7-5.9-4.3L348.8,71.8z"/>
		</g>
		<g>
			<path class="st2" d="M364.7,62.3h2.9v3h-2.9v6.6c0,1.3,0.6,1.8,1.8,1.8c0.5,0,1-0.1,1.2-0.1v2.8c-0.2,0.1-0.8,0.3-2.1,0.3
				c-2.6,0-4.3-1.6-4.3-4.2v-7.1h-2.6v-3h0.7c1.5,0,2.2-1,2.2-2.2v-2.1h3.1V62.3z"/>
		</g>
		<g>
			<path class="st2" d="M373.1,71.8c0.1,1.3,1.1,2.4,2.9,2.4c1.4,0,2.1-0.8,2.1-1.6c0-0.8-0.5-1.3-1.7-1.6l-2.1-0.5
				c-2.5-0.6-3.8-2.2-3.8-4.1c0-2.5,2.3-4.6,5.2-4.6c4,0,5.2,2.6,5.5,4l-2.9,0.8c-0.1-0.8-0.7-2.1-2.6-2.1c-1.2,0-2,0.8-2,1.6
				c0,0.8,0.6,1.3,1.4,1.5l2.2,0.4c2.7,0.6,4.1,2.2,4.1,4.3c0,2.2-1.7,4.5-5.4,4.5c-4.1,0-5.7-2.7-5.9-4.3L373.1,71.8z"/>
		</g>
		<g>
			<path class="st2" d="M284,90.8h3.6l-5.8,20.7h-3.6l-5-15.6l-5,15.6h-3.6l-5.9-20.7h3.7l4.1,15.1l4.8-15.1h3.6l4.9,15.2L284,90.8z
				"/>
		</g>
		<g>
			<path class="st2" d="M302.7,104.3c0,4.4-3.1,7.5-7.4,7.5c-4.2,0-7.3-3.2-7.3-7.5c0-4.3,3.1-7.5,7.3-7.5
				C299.6,96.8,302.7,100,302.7,104.3z M299.3,104.3c0-2.9-1.9-4.5-4-4.5c-2.1,0-4,1.5-4,4.5s1.9,4.5,4,4.5
				C297.4,108.9,299.3,107.3,299.3,104.3z"/>
		</g>
		<g>
			<path class="st2" d="M314.3,100.6c-0.4-0.1-0.8-0.1-1.1-0.1c-2.6,0-3.8,1.5-3.8,4.2v6.8H306V97.3h3.3v2.3
				c0.7-1.5,2.2-2.4,4.1-2.4c0.4,0,0.8,0.1,0.9,0.1V100.6z"/>
		</g>
		<g>
			<path class="st2" d="M324.6,103.3l5.9,8.2h-4.1l-4.2-5.8l-1.7,1.8v4h-3.4V90.3h3.4V103l5.5-5.7h4.5L324.6,103.3z"/>
		</g>
		<g>
			<path class="st2" d="M334.6,106.8c0.1,1.3,1.1,2.4,2.9,2.4c1.4,0,2.1-0.8,2.1-1.6c0-0.8-0.5-1.3-1.7-1.6l-2.1-0.5
				c-2.5-0.6-3.8-2.2-3.8-4.1c0-2.5,2.3-4.6,5.2-4.6c4,0,5.2,2.6,5.5,4l-2.9,0.8c-0.1-0.8-0.7-2.1-2.6-2.1c-1.2,0-2,0.8-2,1.6
				c0,0.8,0.6,1.3,1.4,1.5l2.2,0.4c2.7,0.6,4.1,2.2,4.1,4.3c0,2.2-1.7,4.5-5.4,4.5c-4.1,0-5.7-2.7-5.9-4.3L334.6,106.8z"/>
		</g>
		<g>
			<path class="st2" d="M349.6,111.5h-3.4V90.3h3.4v8.3c1-1.3,2.6-1.8,4.1-1.8c3.5,0,5.2,2.5,5.2,5.6v9h-3.4v-8.4
				c0-1.7-0.8-3.1-2.9-3.1c-1.9,0-2.9,1.4-2.9,3.2V111.5z"/>
		</g>
		<g>
			<path class="st2" d="M376.6,104.3c0,4.4-3.1,7.5-7.4,7.5c-4.2,0-7.3-3.2-7.3-7.5c0-4.3,3.1-7.5,7.3-7.5
				C373.5,96.8,376.6,100,376.6,104.3z M373.2,104.3c0-2.9-1.9-4.5-4-4.5c-2.1,0-4,1.5-4,4.5s1.9,4.5,4,4.5
				C371.3,108.9,373.2,107.3,373.2,104.3z"/>
		</g>
		<g>
			<path class="st2" d="M379.9,117V97.3h3.3v1.9c0.7-1.2,2.3-2.2,4.5-2.2c4.2,0,6.6,3.2,6.6,7.4c0,4.3-2.6,7.5-6.7,7.5
				c-2,0-3.6-0.9-4.3-2v7.1H379.9z M387,99.9c-2.2,0-3.8,1.7-3.8,4.4c0,2.7,1.6,4.5,3.8,4.5c2.2,0,3.8-1.7,3.8-4.5
				C390.8,101.7,389.3,99.9,387,99.9z"/>
		</g>
	</g>
	<g>
		<g>
			<path class="st2" d="M267.8,155.2l-6.4-9.6v9.6h-1.6v-11.8h2.2l5.9,9.1v-9.1h1.6v11.8H267.8z"/>
		</g>
		<g>
			<path class="st2" d="M279.9,151.2c0,2.4-1.7,4.3-4.1,4.3c-2.4,0-4.1-1.8-4.1-4.3c0-2.4,1.7-4.2,4.1-4.2
				C278.2,147,279.9,148.8,279.9,151.2z M278.3,151.2c0-1.8-1.2-2.8-2.5-2.8c-1.3,0-2.5,1-2.5,2.8c0,1.9,1.2,2.9,2.5,2.9
				C277.1,154.1,278.3,153.1,278.3,151.2z"/>
		</g>
		<g>
			<path class="st2" d="M285.3,155.2h-1.6l-3.2-8h1.8l2.3,6.2l2.3-6.2h1.7L285.3,155.2z"/>
		</g>
		<g>
			<path class="st2" d="M295.8,148.9l3.2-2.9h-5.2v-1.5h7.3v1.5l-3.1,2.8c1.6,0,3.3,1.1,3.3,3.3c0,1.8-1.4,3.5-3.9,3.5
				c-2.5,0-3.9-1.6-4-3.4l1.6-0.4c0.1,1.4,1.1,2.3,2.4,2.3c1.5,0,2.3-0.9,2.3-2c0-1.4-1.1-2-2.2-2c-0.3,0-0.7,0.1-0.9,0.2
				L295.8,148.9z"/>
		</g>
		<g>
			<path class="st2" d="M303.9,145.9c0.7-1,1.8-1.7,3.3-1.7c1.5,0,2.6,0.7,3.3,1.7c0.7,1.1,1,2.4,1,3.9c0,1.5-0.2,2.8-1,3.9
				c-0.7,1-1.8,1.7-3.3,1.7c-1.5,0-2.6-0.7-3.3-1.7c-0.7-1.1-1-2.4-1-3.9C302.9,148.3,303.1,147,303.9,145.9z M305.5,153.3
				c0.4,0.4,0.9,0.7,1.7,0.7c0.8,0,1.3-0.3,1.7-0.7c0.6-0.7,0.9-1.8,0.9-3.5c0-1.6-0.3-2.8-0.9-3.5c-0.4-0.4-0.9-0.7-1.7-0.7
				c-0.8,0-1.3,0.3-1.7,0.7c-0.6,0.7-0.9,1.8-0.9,3.5C304.5,151.5,304.8,152.6,305.5,153.3z"/>
		</g>
		<g>
			<path class="st2" d="M316.4,151.1v-1.4h4.5v1.4H316.4z"/>
		</g>
		<g>
			<path class="st2" d="M326.5,155.2v-11.8h4.1c3,0,5.6,2,5.6,5.9c0,3.9-2.6,5.9-5.6,5.9H326.5z M330.5,153.8c2.2,0,4-1.5,4-4.4
				c0-3-1.8-4.5-4-4.5h-2.4v8.9H330.5z"/>
		</g>
		<g>
			<path class="st2" d="M345.3,152.9c-0.4,1.4-1.7,2.5-3.6,2.5c-2.1,0-4-1.6-4-4.3c0-2.5,1.8-4.2,3.8-4.2c2.5,0,3.8,1.7,3.8,4.2
				c0,0.2,0,0.4,0,0.5h-6c0,1.4,1.1,2.4,2.4,2.4c1.3,0,1.9-0.7,2.2-1.6L345.3,152.9z M343.7,150.4c0-1.1-0.8-2-2.2-2
				c-1.3,0-2.1,1-2.2,2H343.7z"/>
		</g>
		<g>
			<path class="st2" d="M348.2,151.2c0,1.8,1.1,2.8,2.4,2.8c1.5,0,2-1,2.2-1.6l1.4,0.6c-0.4,1.1-1.5,2.5-3.6,2.5c-2.3,0-4-1.8-4-4.3
				c0-2.5,1.7-4.2,4-4.2c2.1,0,3.2,1.3,3.6,2.5l-1.4,0.6c-0.2-0.8-0.8-1.7-2.1-1.7C349.4,148.4,348.2,149.3,348.2,151.2z"/>
		</g>
		<g>
			<path class="st2" d="M359.7,148.1c0-0.1,0-0.3,0-0.4c0-1.8,1.4-3.5,3.7-3.5c2.3,0,3.6,1.5,3.6,3.3c0,1.4-0.8,2.5-2,3.3l-2.1,1.4
				c-0.6,0.4-1.2,0.8-1.3,1.5h5.5v1.5h-7.6c0-1.8,0.7-3.1,2.6-4.3l1.8-1.2c1-0.6,1.5-1.4,1.5-2.2c0-1-0.7-1.9-2-1.9
				c-1.4,0-2.1,1-2.1,2.2c0,0.1,0,0.3,0,0.5L359.7,148.1z"/>
		</g>
		<g>
			<path class="st2" d="M374.2,149.3c0.6,0,1.2,0.5,1.2,1.2c0,0.6-0.5,1.1-1.2,1.1c-0.6,0-1.1-0.5-1.1-1.1
				C373.1,149.8,373.6,149.3,374.2,149.3z"/>
		</g>
		<g>
			<path class="st2" d="M385.6,149.9l-1.7,1.8v3.6h-1.6v-11.8h1.6v6.1l5.5-6.1h2.1l-4.9,5.3l5,6.5h-2.1L385.6,149.9z"/>
		</g>
		<g>
			<path class="st2" d="M400.1,151.2c0,2.4-1.7,4.3-4.1,4.3c-2.4,0-4.1-1.8-4.1-4.3c0-2.4,1.7-4.2,4.1-4.2
				C398.4,147,400.1,148.8,400.1,151.2z M398.5,151.2c0-1.8-1.2-2.8-2.5-2.8c-1.3,0-2.5,1-2.5,2.8c0,1.9,1.2,2.9,2.5,2.9
				C397.4,154.1,398.5,153.1,398.5,151.2z"/>
		</g>
		<g>
			<path class="st2" d="M403.1,151.2c0,1.8,1.1,2.8,2.4,2.8c1.5,0,2-1,2.2-1.6l1.4,0.6c-0.4,1.1-1.5,2.5-3.6,2.5c-2.3,0-4-1.8-4-4.3
				c0-2.5,1.7-4.2,4-4.2c2.1,0,3.2,1.3,3.6,2.5l-1.4,0.6c-0.2-0.8-0.8-1.7-2.1-1.7C404.2,148.4,403.1,149.3,403.1,151.2z"/>
		</g>
		<g>
			<path class="st2" d="M412.5,155.2H411v-12.1h1.6v5c0.6-0.8,1.5-1.2,2.4-1.2c1.9,0,2.9,1.4,2.9,3.2v5.1h-1.6v-4.8
				c0-1.1-0.5-2-1.9-2c-1.2,0-1.8,0.9-1.9,2.1V155.2z"/>
		</g>
		<g>
			<path class="st2" d="M421.1,143c0.6,0,1.1,0.5,1.1,1.1c0,0.6-0.5,1.1-1.1,1.1c-0.6,0-1.1-0.5-1.1-1.1
				C420,143.5,420.5,143,421.1,143z M420.3,155.2v-8h1.5v8H420.3z"/>
		</g>
	</g>
	<g>
		<path class="st1" d="M179.1,42h4.6l1.1-5h3.4l-1.1,5h4.2l1.1-5h3.4l-1.1,5h4.1v3.1h-4.8l-1,4.5h4.1v3.1h-4.8l-1.1,5.2h-3.4
			l1.1-5.2h-4.2l-1.1,5.2h-3.4l1.1-5.2h-3.9v-3.1h4.6l1-4.5h-4V42z M185.5,49.7h4.2l1-4.5h-4.2L185.5,49.7z"/>
		<path class="st1" d="M205.9,57.9v-14h-5v-3c3.1,0,5.2-1.7,5.6-3.9h3.8v21H205.9z"/>
	</g>
</g>
</svg>
